<svg xmlns="http://www.w3.org/2000/svg" width="32" height="32" viewBox="0 0 32 32" role="img" aria-label="FundScout">
  <defs>
    <linearGradient id="badge" x1="3" x2="29" y1="3" y2="29" gradientUnits="userSpaceOnUse">
      <stop stop-color="#22C55E"/>
      <stop offset="0.48" stop-color="#06B6D4"/>
      <stop offset="1" stop-color="#2563EB"/>
    </linearGradient>
  </defs>
  <rect width="32" height="32" rx="8" fill="#F8FAFC"/>
  <rect x="2.5" y="2.5" width="27" height="27" rx="7" fill="url(#badge)"/>
  <circle cx="16" cy="16" r="8.2" fill="none" stroke="#FFFFFF" stroke-opacity="0.9" stroke-width="2.2"/>
  <path fill="#FFFFFF" d="M21 9.8a.9.9 0 0 1 1.2 1.2l-3.8 9.7a1.4 1.4 0 0 1-.9.9l-5.4 2.1a.9.9 0 0 1-1.2-1.2l2.1-5.4c.1-.3.3-.6.6-.8L21 9.8Z"/>
  <path fill="#0F766E" d="m15.3 17.7 3.1-3.1-2 5-2.2.9 1.1-2.8Z" opacity="0.9"/>
  <path fill="none" stroke="#FFFFFF" stroke-linecap="round" stroke-linejoin="round" stroke-width="1.8" d="M8.6 18.2h3l2.1-3.2 2.4 1.8 4-5.1"/>
</svg>
